{
    "asset" : {
        "copyright" : "Skop-Bilonozhko",
        "generator" : "Khronos glTF Blender I/O v1.2.75",
        "version" : "2.0"
    },
    "scene" : 0,
    "scenes" : [
        {
            "name" : "Scene",
            "nodes" : [
                0
            ]
        }
    ],
    "nodes" : [
        {
            "mesh" : 0,
            "name" : "Cube.001",
            "translation" : [
                0,
                -0.13849151134490967,
                4.979185581207275
            ]
        }
    ],
    "materials" : [
        {
            "doubleSided" : true,
            "emissiveFactor" : [
                0.3367907702922821,
                0.20449309051036835,
                0.0462542399764061
            ],
            "name" : "Material.008",
            "pbrMetallicRoughness" : {
                "baseColorFactor" : [
                    0.4752123951911926,
                    0.2256932258605957,
                    0.17013180255889893,
                    1
                ],
                "metallicFactor" : 1,
                "roughnessFactor" : 0.3545454740524292
            }
        },
        {
            "doubleSided" : true,
            "emissiveFactor" : [
                0,
                0,
                0
            ],
            "name" : "Material.010",
            "pbrMetallicRoughness" : {
                "baseColorFactor" : [
                    0,
                    0,
                    0,
                    1
                ],
                "metallicFactor" : 1,
                "roughnessFactor" : 0.5
            }
        },
        {
            "doubleSided" : true,
            "emissiveFactor" : [
                0,
                0,
                0
            ],
            "name" : "Material.011",
            "pbrMetallicRoughness" : {
                "baseColorFactor" : [
                    0.7288418412208557,
                    0,
                    0.0029905810952186584,
                    1
                ],
                "metallicFactor" : 1,
                "roughnessFactor" : 0.5
            }
        },
        {
            "doubleSided" : true,
            "emissiveFactor" : [
                0,
                0,
                0
            ],
            "name" : "Material.012",
            "pbrMetallicRoughness" : {
                "baseColorFactor" : [
                    0.03970791772007942,
                    0.0020508437883108854,
                    0.005974141415208578,
                    1
                ],
                "metallicFactor" : 0,
                "roughnessFactor" : 0.5
            }
        },
        {
            "doubleSided" : true,
            "emissiveFactor" : [
                0,
                0,
                0
            ],
            "name" : "Material.007",
            "pbrMetallicRoughness" : {
                "baseColorTexture" : {
                    "index" : 0,
                    "texCoord" : 0
                },
                "metallicFactor" : 0,
                "roughnessFactor" : 0.5
            }
        }
    ],
    "meshes" : [
        {
            "name" : "Cube.009",
            "primitives" : [
                {
                    "attributes" : {
                        "POSITION" : 0,
                        "NORMAL" : 1,
                        "TEXCOORD_0" : 2
                    },
                    "indices" : 3,
                    "material" : 0
                },
                {
                    "attributes" : {
                        "POSITION" : 4,
                        "NORMAL" : 5,
                        "TEXCOORD_0" : 6
                    },
                    "indices" : 7,
                    "material" : 1
                },
                {
                    "attributes" : {
                        "POSITION" : 8,
                        "NORMAL" : 9,
                        "TEXCOORD_0" : 10
                    },
                    "indices" : 11,
                    "material" : 2
                },
                {
                    "attributes" : {
                        "POSITION" : 12,
                        "NORMAL" : 13,
                        "TEXCOORD_0" : 14
                    },
                    "indices" : 15,
                    "material" : 3
                },
                {
                    "attributes" : {
                        "POSITION" : 16,
                        "NORMAL" : 17,
                        "TEXCOORD_0" : 18
                    },
                    "indices" : 19,
                    "material" : 4
                }
            ]
        }
    ],
    "textures" : [
        {
            "source" : 0
        }
    ],
    "images" : [
        {
            "mimeType" : "image/jpeg",
            "name" : "press",
            "uri" : "texture/press.jpg"
        }
    ],
    "accessors" : [
        {
            "bufferView" : 0,
            "componentType" : 5126,
            "count" : 957,
            "max" : [
                0.5951457023620605,
                1.8125948905944824,
                0.26979902386665344
            ],
            "min" : [
                -0.5951457619667053,
                0.7661280632019043,
                -0.1705995351076126
            ],
            "type" : "VEC3"
        },
        {
            "bufferView" : 1,
            "componentType" : 5126,
            "count" : 957,
            "type" : "VEC3"
        },
        {
            "bufferView" : 2,
            "componentType" : 5126,
            "count" : 957,
            "type" : "VEC2"
        },
        {
            "bufferView" : 3,
            "componentType" : 5123,
            "count" : 1668,
            "type" : "SCALAR"
        },
        {
            "bufferView" : 4,
            "componentType" : 5126,
            "count" : 8,
            "max" : [
                0.0973457396030426,
                1.6533886194229126,
                0.07644251734018326
            ],
            "min" : [
                -0.09734577685594559,
                1.6185243129730225,
                0.07644251734018326
            ],
            "type" : "VEC3"
        },
        {
            "bufferView" : 5,
            "componentType" : 5126,
            "count" : 8,
            "type" : "VEC3"
        },
        {
            "bufferView" : 6,
            "componentType" : 5126,
            "count" : 8,
            "type" : "VEC2"
        },
        {
            "bufferView" : 7,
            "componentType" : 5123,
            "count" : 12,
            "type" : "SCALAR"
        },
        {
            "bufferView" : 8,
            "componentType" : 5126,
            "count" : 6,
            "max" : [
                0.04867285490036011,
                1.5836601257324219,
                0.07644251734018326
            ],
            "min" : [
                -0.04867290332913399,
                1.5487957000732422,
                0.07644251734018326
            ],
            "type" : "VEC3"
        },
        {
            "bufferView" : 9,
            "componentType" : 5126,
            "count" : 6,
            "type" : "VEC3"
        },
        {
            "bufferView" : 10,
            "componentType" : 5126,
            "count" : 6,
            "type" : "VEC2"
        },
        {
            "bufferView" : 11,
            "componentType" : 5123,
            "count" : 12,
            "type" : "SCALAR"
        },
        {
            "bufferView" : 12,
            "componentType" : 5126,
            "count" : 315,
            "max" : [
                0.1873287409543991,
                0.8213191032409668,
                0.2040579915046692
            ],
            "min" : [
                -0.1873287707567215,
                0.12289583683013916,
                -0.1705995351076126
            ],
            "type" : "VEC3"
        },
        {
            "bufferView" : 13,
            "componentType" : 5126,
            "count" : 315,
            "type" : "VEC3"
        },
        {
            "bufferView" : 14,
            "componentType" : 5126,
            "count" : 315,
            "type" : "VEC2"
        },
        {
            "bufferView" : 15,
            "componentType" : 5123,
            "count" : 600,
            "type" : "SCALAR"
        },
        {
            "bufferView" : 16,
            "componentType" : 5126,
            "count" : 48,
            "max" : [
                0.1873287409543991,
                1.2919684648513794,
                0.2040579915046692
            ],
            "min" : [
                -0.1873287707567215,
                0.8213191032409668,
                0.2040579915046692
            ],
            "type" : "VEC3"
        },
        {
            "bufferView" : 17,
            "componentType" : 5126,
            "count" : 48,
            "type" : "VEC3"
        },
        {
            "bufferView" : 18,
            "componentType" : 5126,
            "count" : 48,
            "type" : "VEC2"
        },
        {
            "bufferView" : 19,
            "componentType" : 5123,
            "count" : 72,
            "type" : "SCALAR"
        }
    ],
    "bufferViews" : [
        {
            "buffer" : 0,
            "byteLength" : 11484,
            "byteOffset" : 0
        },
        {
            "buffer" : 0,
            "byteLength" : 11484,
            "byteOffset" : 11484
        },
        {
            "buffer" : 0,
            "byteLength" : 7656,
            "byteOffset" : 22968
        },
        {
            "buffer" : 0,
            "byteLength" : 3336,
            "byteOffset" : 30624
        },
        {
            "buffer" : 0,
            "byteLength" : 96,
            "byteOffset" : 33960
        },
        {
            "buffer" : 0,
            "byteLength" : 96,
            "byteOffset" : 34056
        },
        {
            "buffer" : 0,
            "byteLength" : 64,
            "byteOffset" : 34152
        },
        {
            "buffer" : 0,
            "byteLength" : 24,
            "byteOffset" : 34216
        },
        {
            "buffer" : 0,
            "byteLength" : 72,
            "byteOffset" : 34240
        },
        {
            "buffer" : 0,
            "byteLength" : 72,
            "byteOffset" : 34312
        },
        {
            "buffer" : 0,
            "byteLength" : 48,
            "byteOffset" : 34384
        },
        {
            "buffer" : 0,
            "byteLength" : 24,
            "byteOffset" : 34432
        },
        {
            "buffer" : 0,
            "byteLength" : 3780,
            "byteOffset" : 34456
        },
        {
            "buffer" : 0,
            "byteLength" : 3780,
            "byteOffset" : 38236
        },
        {
            "buffer" : 0,
            "byteLength" : 2520,
            "byteOffset" : 42016
        },
        {
            "buffer" : 0,
            "byteLength" : 1200,
            "byteOffset" : 44536
        },
        {
            "buffer" : 0,
            "byteLength" : 576,
            "byteOffset" : 45736
        },
        {
            "buffer" : 0,
            "byteLength" : 576,
            "byteOffset" : 46312
        },
        {
            "buffer" : 0,
            "byteLength" : 384,
            "byteOffset" : 46888
        },
        {
            "buffer" : 0,
            "byteLength" : 144,
            "byteOffset" : 47272
        }
    ],
    "buffers" : [
        {
            "byteLength" : 47416,
            "uri" : "Robo.bin"
        }
    ]
}
